<svg width="24" height="24" viewBox="0 0 24 24" fill="none" xmlns="http://www.w3.org/2000/svg">
<circle cx="12" cy="12" r="12" fill="url(#paint0_linear_7007_3499)" style=""/>
<path d="M7.625 7.5C6.72754 7.5 6 8.18401 6 9.02777V14.5277C6 15.3715 6.72754 16.0555 7.625 16.0555H10.55V11.625C10.55 11.222 10.791 10.8532 11.1733 10.671C11.5557 10.4889 12.0145 10.5243 12.3602 10.7626L17.2352 15.3459C17.4789 15.5139 17.635 15.7607 17.6837 16.028C18.4336 15.8924 19 15.2723 19 14.5277V9.02777C19 8.18401 18.2725 7.5 17.375 7.5H7.625ZM12.0322 11.3009C11.8928 11.1698 11.6831 11.1306 11.5009 11.2016C11.3188 11.2725 11.2 11.4396 11.2 11.625V18.0416C11.2 18.2424 11.339 18.4198 11.5429 18.4793C11.7468 18.5389 11.9682 18.4667 12.0892 18.3013L13.6926 16.1086L16.4621 16.6568C16.6732 16.6986 16.8884 16.605 16.9911 16.4266C17.0939 16.2483 17.0598 16.0276 16.9072 15.8842L12.0322 11.3009Z" fill="white" fill-opacity="0.8" style="fill:white;fill-opacity:0.8;"/>
<defs>
<linearGradient id="paint0_linear_7007_3499" x1="17" y1="1.5" x2="6.24" y2="22.32" gradientUnits="userSpaceOnUse">
<stop stop-color="#BEB4FF" style="stop-color:#BEB4FF;stop-color:color(display-p3 0.7451 0.7059 1.0000);stop-opacity:1;"/>
<stop offset="1" stop-color="#9197FF" style="stop-color:#9197FF;stop-color:color(display-p3 0.5700 0.5939 1.0000);stop-opacity:1;"/>
</linearGradient>
</defs>
</svg>
